{
    "asset" : {
        "generator" : "Khronos glTF Blender I/O v1.7.33",
        "version" : "2.0"
    },
    "scene" : 0,
    "scenes" : [
        {
            "name" : "Scene",
            "nodes" : [
                0,
                1,
                2,
                3,
                4
            ]
        }
    ],
    "nodes" : [
        {
            "mesh" : 0,
            "name" : "Plane.012",
            "rotation" : [
                -0.06723805516958237,
                0.06488409638404846,
                0.09377716481685638,
                0.9911988377571106
            ],
            "scale" : [
                1.0304920673370361,
                1.030491828918457,
                1.030491828918457
            ],
            "translation" : [
                -1.9087741374969482,
                23.253353118896484,
                2.6494927406311035
            ]
        },
        {
            "mesh" : 1,
            "name" : "Plane.013",
            "rotation" : [
                -0.05734705552458763,
                0.07377133518457413,
                0.23352564871311188,
                0.9678506255149841
            ],
            "scale" : [
                1.0304920673370361,
                1.0304920673370361,
                1.0304917097091675
            ],
            "translation" : [
                -0.9239717721939087,
                25.166397094726562,
                1.9903106689453125
            ]
        },
        {
            "mesh" : 2,
            "name" : "Plane.014",
            "rotation" : [
                -0.05254162475466728,
                0.07726751267910004,
                0.29457706212997437,
                0.9510486125946045
            ],
            "scale" : [
                1.0304919481277466,
                1.0304917097091675,
                1.0304917097091675
            ],
            "translation" : [
                -0.5497771501541138,
                26.235246658325195,
                1.633641004562378
            ]
        },
        {
            "mesh" : 3,
            "name" : "Circle.007",
            "rotation" : [
                0.23634423315525055,
                -0.2048976719379425,
                -0.18935760855674744,
                0.9307534694671631
            ],
            "scale" : [
                11.868744850158691,
                11.868744850158691,
                11.868741035461426
            ],
            "translation" : [
                -0.5364201068878174,
                28.876506805419922,
                9.189340591430664
            ]
        },
        {
            "mesh" : 4,
            "name" : "NurbsPath.010",
            "rotation" : [
                0,
                0.047728609293699265,
                0,
                0.9988603591918945
            ],
            "translation" : [
                -1.9087741374969482,
                23.253353118896484,
                2.6494927406311035
            ]
        }
    ],
    "materials" : [
        {
            "doubleSided" : true,
            "name" : "Material.004",
            "pbrMetallicRoughness" : {
                "baseColorFactor" : [
                    0.8000000715255737,
                    0.11993147432804108,
                    0.09216582030057907,
                    1
                ],
                "metallicFactor" : 0,
                "roughnessFactor" : 0.5
            }
        },
        {
            "doubleSided" : true,
            "name" : "Material",
            "pbrMetallicRoughness" : {
                "baseColorFactor" : [
                    1,
                    0.27280953526496887,
                    0.008676736615598202,
                    1
                ],
                "metallicFactor" : 0,
                "roughnessFactor" : 0.5
            }
        },
        {
            "doubleSided" : true,
            "name" : "Material.008",
            "pbrMetallicRoughness" : {
                "baseColorFactor" : [
                    0.17284518480300903,
                    0.34155288338661194,
                    0.05619368702173233,
                    1
                ],
                "metallicFactor" : 0,
                "roughnessFactor" : 0.5
            }
        },
        {
            "doubleSided" : true,
            "name" : "Material.026",
            "pbrMetallicRoughness" : {
                "baseColorFactor" : [
                    0.056414276361465454,
                    0.1729297935962677,
                    0.4336954355239868,
                    1
                ],
                "metallicFactor" : 0,
                "roughnessFactor" : 0.5
            }
        },
        {
            "doubleSided" : true,
            "name" : "Material.025",
            "pbrMetallicRoughness" : {
                "baseColorFactor" : [
                    0.1204967200756073,
                    0.3883453905582428,
                    1,
                    1
                ],
                "metallicFactor" : 0,
                "roughnessFactor" : 0.5
            }
        },
        {
            "doubleSided" : true,
            "name" : "Material.022",
            "pbrMetallicRoughness" : {
                "baseColorFactor" : [
                    0.07846125215291977,
                    0.07846125215291977,
                    0.07846125215291977,
                    1
                ],
                "metallicFactor" : 0,
                "roughnessFactor" : 0.5
            }
        }
    ],
    "meshes" : [
        {
            "name" : "Plane.013",
            "primitives" : [
                {
                    "attributes" : {
                        "POSITION" : 0,
                        "NORMAL" : 1,
                        "TEXCOORD_0" : 2
                    },
                    "indices" : 3,
                    "material" : 0
                }
            ]
        },
        {
            "name" : "Plane.014",
            "primitives" : [
                {
                    "attributes" : {
                        "POSITION" : 4,
                        "NORMAL" : 5,
                        "TEXCOORD_0" : 6
                    },
                    "indices" : 3,
                    "material" : 1
                }
            ]
        },
        {
            "name" : "Plane.015",
            "primitives" : [
                {
                    "attributes" : {
                        "POSITION" : 7,
                        "NORMAL" : 8,
                        "TEXCOORD_0" : 9
                    },
                    "indices" : 3,
                    "material" : 2
                }
            ]
        },
        {
            "name" : "Circle.006",
            "primitives" : [
                {
                    "attributes" : {
                        "POSITION" : 10,
                        "NORMAL" : 11,
                        "TEXCOORD_0" : 12
                    },
                    "indices" : 13,
                    "material" : 3
                },
                {
                    "attributes" : {
                        "POSITION" : 14,
                        "NORMAL" : 15,
                        "TEXCOORD_0" : 16
                    },
                    "indices" : 17,
                    "material" : 4
                },
                {
                    "attributes" : {
                        "POSITION" : 18,
                        "NORMAL" : 19,
                        "TEXCOORD_0" : 20
                    },
                    "indices" : 21,
                    "material" : 4
                },
                {
                    "attributes" : {
                        "POSITION" : 22,
                        "NORMAL" : 23,
                        "TEXCOORD_0" : 24
                    },
                    "indices" : 25,
                    "material" : 3
                },
                {
                    "attributes" : {
                        "POSITION" : 26,
                        "NORMAL" : 27,
                        "TEXCOORD_0" : 28
                    },
                    "indices" : 29,
                    "material" : 5
                }
            ]
        },
        {
            "name" : "NurbsPath.005",
            "primitives" : [
                {
                    "attributes" : {
                        "POSITION" : 30,
                        "NORMAL" : 31,
                        "TEXCOORD_0" : 32
                    },
                    "indices" : 33,
                    "material" : 5
                }
            ]
        }
    ],
    "accessors" : [
        {
            "bufferView" : 0,
            "componentType" : 5126,
            "count" : 2072,
            "max" : [
                5.936290264129639,
                5.920735836029053,
                -4.3710073782676773e-07
            ],
            "min" : [
                -5.936290264129639,
                -5.9207353591918945,
                -0.24000059068202972
            ],
            "type" : "VEC3"
        },
        {
            "bufferView" : 1,
            "componentType" : 5126,
            "count" : 2072,
            "type" : "VEC3"
        },
        {
            "bufferView" : 2,
            "componentType" : 5126,
            "count" : 2072,
            "type" : "VEC2"
        },
        {
            "bufferView" : 3,
            "componentType" : 5123,
            "count" : 11520,
            "type" : "SCALAR"
        },
        {
            "bufferView" : 4,
            "componentType" : 5126,
            "count" : 2072,
            "max" : [
                5.936290264129639,
                5.920735836029053,
                -4.3710073782676773e-07
            ],
            "min" : [
                -5.936290264129639,
                -5.9207353591918945,
                -0.24000059068202972
            ],
            "type" : "VEC3"
        },
        {
            "bufferView" : 5,
            "componentType" : 5126,
            "count" : 2072,
            "type" : "VEC3"
        },
        {
            "bufferView" : 6,
            "componentType" : 5126,
            "count" : 2072,
            "type" : "VEC2"
        },
        {
            "bufferView" : 7,
            "componentType" : 5126,
            "count" : 2072,
            "max" : [
                5.936290264129639,
                5.920735836029053,
                -4.3710073782676773e-07
            ],
            "min" : [
                -5.936290264129639,
                -5.9207353591918945,
                -0.24000059068202972
            ],
            "type" : "VEC3"
        },
        {
            "bufferView" : 8,
            "componentType" : 5126,
            "count" : 2072,
            "type" : "VEC3"
        },
        {
            "bufferView" : 9,
            "componentType" : 5126,
            "count" : 2072,
            "type" : "VEC2"
        },
        {
            "bufferView" : 10,
            "componentType" : 5126,
            "count" : 12865,
            "max" : [
                0.10657200217247009,
                0.4471440017223358,
                0.10092099756002426
            ],
            "min" : [
                -0.09527095407247543,
                -0.5101823210716248,
                -0.10092147439718246
            ],
            "type" : "VEC3"
        },
        {
            "bufferView" : 11,
            "componentType" : 5126,
            "count" : 12865,
            "type" : "VEC3"
        },
        {
            "bufferView" : 12,
            "componentType" : 5126,
            "count" : 12865,
            "type" : "VEC2"
        },
        {
            "bufferView" : 13,
            "componentType" : 5123,
            "count" : 75264,
            "type" : "SCALAR"
        },
        {
            "bufferView" : 14,
            "componentType" : 5126,
            "count" : 10240,
            "max" : [
                0.08657874166965485,
                0.3655160665512085,
                0.08092807233333588
            ],
            "min" : [
                -0.14743967354297638,
                -0.18893902003765106,
                -0.08092854171991348
            ],
            "type" : "VEC3"
        },
        {
            "bufferView" : 15,
            "componentType" : 5126,
            "count" : 10240,
            "type" : "VEC3"
        },
        {
            "bufferView" : 16,
            "componentType" : 5126,
            "count" : 10240,
            "type" : "VEC2"
        },
        {
            "bufferView" : 17,
            "componentType" : 5123,
            "count" : 60672,
            "type" : "SCALAR"
        },
        {
            "bufferView" : 18,
            "componentType" : 5126,
            "count" : 7296,
            "max" : [
                0.11745565384626389,
                -0.08093754202127457,
                0.11180461943149567
            ],
            "min" : [
                -0.10615461319684982,
                -0.37926194071769714,
                -0.11180511116981506
            ],
            "type" : "VEC3"
        },
        {
            "bufferView" : 19,
            "componentType" : 5126,
            "count" : 7296,
            "type" : "VEC3"
        },
        {
            "bufferView" : 20,
            "componentType" : 5126,
            "count" : 7296,
            "type" : "VEC2"
        },
        {
            "bufferView" : 21,
            "componentType" : 5123,
            "count" : 43008,
            "type" : "SCALAR"
        },
        {
            "bufferView" : 22,
            "componentType" : 5126,
            "count" : 7296,
            "max" : [
                0.11487392336130142,
                0.23060928285121918,
                0.10922269523143768
            ],
            "min" : [
                -0.10357289016246796,
                -0.07504201680421829,
                -0.10922316461801529
            ],
            "type" : "VEC3"
        },
        {
            "bufferView" : 23,
            "componentType" : 5126,
            "count" : 7296,
            "type" : "VEC3"
        },
        {
            "bufferView" : 24,
            "componentType" : 5126,
            "count" : 7296,
            "type" : "VEC2"
        },
        {
            "bufferView" : 25,
            "componentType" : 5123,
            "count" : 43008,
            "type" : "SCALAR"
        },
        {
            "bufferView" : 26,
            "componentType" : 5126,
            "count" : 3393,
            "max" : [
                0.035993169993162155,
                -0.5101822018623352,
                0.03034237213432789
            ],
            "min" : [
                -0.024692129343748093,
                -0.5708931088447571,
                -0.030342845246195793
            ],
            "type" : "VEC3"
        },
        {
            "bufferView" : 27,
            "componentType" : 5126,
            "count" : 3393,
            "type" : "VEC3"
        },
        {
            "bufferView" : 28,
            "componentType" : 5126,
            "count" : 3393,
            "type" : "VEC2"
        },
        {
            "bufferView" : 29,
            "componentType" : 5123,
            "count" : 19968,
            "type" : "SCALAR"
        },
        {
            "bufferView" : 30,
            "componentType" : 5126,
            "count" : 492,
            "max" : [
                -0.3031412661075592,
                1.0451427698135376,
                0.1465308517217636
            ],
            "min" : [
                -4.52858304977417,
                0.17688006162643433,
                -0.2093237340450287
            ],
            "type" : "VEC3"
        },
        {
            "bufferView" : 31,
            "componentType" : 5126,
            "count" : 492,
            "type" : "VEC3"
        },
        {
            "bufferView" : 32,
            "componentType" : 5126,
            "count" : 492,
            "type" : "VEC2"
        },
        {
            "bufferView" : 33,
            "componentType" : 5123,
            "count" : 2580,
            "type" : "SCALAR"
        }
    ],
    "bufferViews" : [
        {
            "buffer" : 0,
            "byteLength" : 24864,
            "byteOffset" : 0
        },
        {
            "buffer" : 0,
            "byteLength" : 24864,
            "byteOffset" : 24864
        },
        {
            "buffer" : 0,
            "byteLength" : 16576,
            "byteOffset" : 49728
        },
        {
            "buffer" : 0,
            "byteLength" : 23040,
            "byteOffset" : 66304
        },
        {
            "buffer" : 0,
            "byteLength" : 24864,
            "byteOffset" : 89344
        },
        {
            "buffer" : 0,
            "byteLength" : 24864,
            "byteOffset" : 114208
        },
        {
            "buffer" : 0,
            "byteLength" : 16576,
            "byteOffset" : 139072
        },
        {
            "buffer" : 0,
            "byteLength" : 24864,
            "byteOffset" : 155648
        },
        {
            "buffer" : 0,
            "byteLength" : 24864,
            "byteOffset" : 180512
        },
        {
            "buffer" : 0,
            "byteLength" : 16576,
            "byteOffset" : 205376
        },
        {
            "buffer" : 0,
            "byteLength" : 154380,
            "byteOffset" : 221952
        },
        {
            "buffer" : 0,
            "byteLength" : 154380,
            "byteOffset" : 376332
        },
        {
            "buffer" : 0,
            "byteLength" : 102920,
            "byteOffset" : 530712
        },
        {
            "buffer" : 0,
            "byteLength" : 150528,
            "byteOffset" : 633632
        },
        {
            "buffer" : 0,
            "byteLength" : 122880,
            "byteOffset" : 784160
        },
        {
            "buffer" : 0,
            "byteLength" : 122880,
            "byteOffset" : 907040
        },
        {
            "buffer" : 0,
            "byteLength" : 81920,
            "byteOffset" : 1029920
        },
        {
            "buffer" : 0,
            "byteLength" : 121344,
            "byteOffset" : 1111840
        },
        {
            "buffer" : 0,
            "byteLength" : 87552,
            "byteOffset" : 1233184
        },
        {
            "buffer" : 0,
            "byteLength" : 87552,
            "byteOffset" : 1320736
        },
        {
            "buffer" : 0,
            "byteLength" : 58368,
            "byteOffset" : 1408288
        },
        {
            "buffer" : 0,
            "byteLength" : 86016,
            "byteOffset" : 1466656
        },
        {
            "buffer" : 0,
            "byteLength" : 87552,
            "byteOffset" : 1552672
        },
        {
            "buffer" : 0,
            "byteLength" : 87552,
            "byteOffset" : 1640224
        },
        {
            "buffer" : 0,
            "byteLength" : 58368,
            "byteOffset" : 1727776
        },
        {
            "buffer" : 0,
            "byteLength" : 86016,
            "byteOffset" : 1786144
        },
        {
            "buffer" : 0,
            "byteLength" : 40716,
            "byteOffset" : 1872160
        },
        {
            "buffer" : 0,
            "byteLength" : 40716,
            "byteOffset" : 1912876
        },
        {
            "buffer" : 0,
            "byteLength" : 27144,
            "byteOffset" : 1953592
        },
        {
            "buffer" : 0,
            "byteLength" : 39936,
            "byteOffset" : 1980736
        },
        {
            "buffer" : 0,
            "byteLength" : 5904,
            "byteOffset" : 2020672
        },
        {
            "buffer" : 0,
            "byteLength" : 5904,
            "byteOffset" : 2026576
        },
        {
            "buffer" : 0,
            "byteLength" : 3936,
            "byteOffset" : 2032480
        },
        {
            "buffer" : 0,
            "byteLength" : 5160,
            "byteOffset" : 2036416
        }
    ],
    "buffers" : [
        {
            "byteLength" : 2041576,
            "uri" : "data:application/octet-stream;base64,"
        }
    ]
}
